<svg xmlns="http://www.w3.org/2000/svg" viewBox="0 0 158.07 158.06"><defs><style>.cls-1{fill:#fff;}.cls-2{fill:#0d1129;}.cls-3{fill:#03ddff;}</style></defs><g id="Layer_2" data-name="Layer 2"><g id="Layer_1-2" data-name="Layer 1"><path class="cls-1" d="M0,141.06H21.9a15.46,15.46,0,0,0,2.78-.23,9,9,0,0,0,2.17-.9,4.1,4.1,0,0,0,1.35-1.8,7.1,7.1,0,0,0,.53-3,5.94,5.94,0,0,0-1-3.82,4.23,4.23,0,0,0-3.15-1.5v-.08a8.44,8.44,0,0,0,1.43-.6,2.56,2.56,0,0,0,1-.82,3.66,3.66,0,0,0,.68-1.43,10.14,10.14,0,0,0,.22-2.32c0-2.1-.6-3.67-1.95-4.57s-3.37-1.28-6.15-1.28H0Zm6.9-8.85H19.2a4.22,4.22,0,0,1,1.88.37,1.77,1.77,0,0,1,.6,1.5,1.33,1.33,0,0,1-.68,1.28,3.61,3.61,0,0,1-1.8.37H6.91Zm0-8.18H19.05a2.22,2.22,0,0,1,1.5.45,1.91,1.91,0,0,1,.53,1.36,1.86,1.86,0,0,1-.53,1.34,2.69,2.69,0,0,1-1.5.38H6.91Z"/><rect class="cls-1" x="32.02" y="118.71" width="6.82" height="22.34"/><path class="cls-1" d="M42.22,135.28a6.86,6.86,0,0,0,.53,3,3.71,3.71,0,0,0,1.5,1.88,10,10,0,0,0,2.62.9,30.32,30.32,0,0,0,4.12.29h8.33a53.71,53.71,0,0,0,5.7-.29,8.73,8.73,0,0,0,3.29-1A4.17,4.17,0,0,0,70,138a12.25,12.25,0,0,0,.44-3.67,11.23,11.23,0,0,0-.52-3.9,4.4,4.4,0,0,0-2-2.1,11,11,0,0,0-3.82-.9c-1.58-.15-3.9-.23-6.83-.23-1.95,0-3.45-.07-4.49-.07a13.94,13.94,0,0,1-2.4-.3,1.55,1.55,0,0,1-1.06-.53,2.24,2.24,0,0,1-.22-1.12,1.46,1.46,0,0,1,.68-1.28,3.62,3.62,0,0,1,1.94-.44h7.58c1.5,0,2.4.15,2.77.52a2.22,2.22,0,0,1,.6,1.8h6.82v-.67a10.67,10.67,0,0,0-.29-2.86,4,4,0,0,0-1.13-2,5.7,5.7,0,0,0-2.63-1.27,18.12,18.12,0,0,0-4.57-.53h-9.6a21.87,21.87,0,0,0-5,.53,6.49,6.49,0,0,0-2.7,1.5,4.13,4.13,0,0,0-1.12,2.09,17.85,17.85,0,0,0-.23,3.08,14.1,14.1,0,0,0,.38,3.52,3.94,3.94,0,0,0,1.57,2,9.71,9.71,0,0,0,3.38,1,45.58,45.58,0,0,0,6.22.3c2.47,0,4.27,0,5.47.07a11.66,11.66,0,0,1,2.63.23c.67.15,1.05.3,1.19.6a1.73,1.73,0,0,1,.31,1.2,1.46,1.46,0,0,1-.75,1.5,5.53,5.53,0,0,1-2.18.37H52a4.34,4.34,0,0,1-2.32-.45,3.11,3.11,0,0,1-.68-2.1H42.22Z"/><path class="cls-1" d="M101.08,133.26a10.41,10.41,0,0,0,.67,4,6,6,0,0,0,2,2.48,8.34,8.34,0,0,0,3,1.27,22.88,22.88,0,0,0,4.28.37h11a16,16,0,0,0,4.2-.52,6.81,6.81,0,0,0,2.55-1.42,4.59,4.59,0,0,0,1.2-2.11,9.88,9.88,0,0,0,.37-2.69v-2.1h-6.89a5.16,5.16,0,0,1-.23,1.65,1.3,1.3,0,0,1-.6.9,2.65,2.65,0,0,1-1.2.45c-.45,0-1.12.07-2,.07H112.1c-1.57,0-2.62-.3-3.15-1a5.83,5.83,0,0,1-.82-3.53v-2.4a5.32,5.32,0,0,1,.9-3.37c.6-.75,1.72-1.13,3.45-1.13h7.42a5.43,5.43,0,0,1,2.48.45,1.8,1.8,0,0,1,.75,1.65v.6H130a20.21,20.21,0,0,0-.37-4.12,5.36,5.36,0,0,0-1.57-2.55,7.59,7.59,0,0,0-3.31-1.35,28.81,28.81,0,0,0-5.77-.45h-8a22.81,22.81,0,0,0-4.28.38,7.14,7.14,0,0,0-3,1.27,5.92,5.92,0,0,0-2,2.47,10.5,10.5,0,0,0-.67,4Z"/><polygon class="cls-1" points="131.9 124.26 141.57 124.26 141.57 141.06 148.47 141.06 148.47 124.26 158.07 124.26 158.07 118.71 131.9 118.71 131.9 124.26"/><path class="cls-1" d="M0,158.06V146.87H2.69v4.29H9.63v-4.29h2.71v11.19H9.63v-4.67H2.69v4.67Z"/><path class="cls-1" d="M40.29,154.24a7,7,0,0,1-.2,1.8,2.51,2.51,0,0,1-.66,1.16,2.66,2.66,0,0,1-1.25.65,7.73,7.73,0,0,1-2,.21H31.27a7.61,7.61,0,0,1-1.92-.21,3.08,3.08,0,0,1-1.28-.68,2.67,2.67,0,0,1-.72-1.18,5.89,5.89,0,0,1-.23-1.75v-3.4a7.24,7.24,0,0,1,.22-1.92,2.64,2.64,0,0,1,.71-1.21,2.8,2.8,0,0,1,1.26-.65,8.21,8.21,0,0,1,2-.19h4.95a6.46,6.46,0,0,1,2.33.35,2.35,2.35,0,0,1,1.31,1.21,5.59,5.59,0,0,1,.43,2.41ZM29.81,154a2.84,2.84,0,0,0,.2,1.14,1,1,0,0,0,.63.57,4.16,4.16,0,0,0,1.28.16h3.57a4,4,0,0,0,1.32-.16,1,1,0,0,0,.61-.55,3,3,0,0,0,.17-1.18V151.1a2.93,2.93,0,0,0-.2-1.25,1.1,1.1,0,0,0-.66-.59,3.94,3.94,0,0,0-1.29-.16H32a3.74,3.74,0,0,0-1.31.17,1.1,1.1,0,0,0-.64.59,3.73,3.73,0,0,0-.21,1.25Z"/><path class="cls-1" d="M60.8,146.87a6,6,0,0,1,2.21.34,2.37,2.37,0,0,1,1.24,1,3.67,3.67,0,0,1,.4,1.79H62a1.16,1.16,0,0,0-.31-.8,1.7,1.7,0,0,0-1.08-.25H56.05q-1.29,0-1.29,1.17a1.05,1.05,0,0,0,.32.92,1.72,1.72,0,0,0,1,.22H61a11.24,11.24,0,0,1,1.72.11,2.6,2.6,0,0,1,1.12.43,2,2,0,0,1,.7,1,5.89,5.89,0,0,1,.23,1.82,4.21,4.21,0,0,1-.39,1.94,2.4,2.4,0,0,1-1.23,1.11,5.72,5.72,0,0,1-2.17.35H55.52a6.07,6.07,0,0,1-2.26-.34,2.2,2.2,0,0,1-1.18-1,4,4,0,0,1-.36-1.8h2.76a1,1,0,0,0,.39.74,1.45,1.45,0,0,0,.94.32h4.51a2.3,2.3,0,0,0,1.32-.3,1.08,1.08,0,0,0,.43-1,1.49,1.49,0,0,0-.15-.71.88.88,0,0,0-.55-.42,3.41,3.41,0,0,0-1.14-.15h-4a11.93,11.93,0,0,1-2-.14,2.9,2.9,0,0,1-1.26-.5,1.94,1.94,0,0,1-.71-1,5.56,5.56,0,0,1-.22-1.73,4,4,0,0,1,.23-1.45,2.25,2.25,0,0,1,.73-1,3.35,3.35,0,0,1,1.28-.55,8.7,8.7,0,0,1,1.92-.18Z"/><path class="cls-1" d="M76.45,146.87H88.6v2.23H83.85v9H81.16v-9H76.45Z"/><path class="cls-1" d="M104.83,158.06h-2.69V146.87h2.69Z"/><path class="cls-1" d="M117.6,158.06V146.87h4.52l6.86,9h.37v-9H132v11.19h-4.62l-6.76-9h-.37v9Z"/><path class="cls-1" d="M155.26,150.32a1.2,1.2,0,0,0-.45-1,2.88,2.88,0,0,0-1.59-.31h-4a2.24,2.24,0,0,0-1.67.51,2.68,2.68,0,0,0-.49,1.78l0,2.69a3.35,3.35,0,0,0,.19,1.21,1,1,0,0,0,.63.58,3.91,3.91,0,0,0,1.35.18h4a6,6,0,0,0,1.26-.1,1.18,1.18,0,0,0,.67-.33,1.1,1.1,0,0,0,.23-.67l0-1.37h-4.45v-2h7.14v3a4.77,4.77,0,0,1-.42,2.12,2.36,2.36,0,0,1-1.3,1.12,6.68,6.68,0,0,1-2.37.34h-5.45a5.92,5.92,0,0,1-2.31-.39,2.74,2.74,0,0,1-1.37-1.25,4.63,4.63,0,0,1-.47-2.18V151a5.69,5.69,0,0,1,.45-2.38,2.59,2.59,0,0,1,1.32-1.29,6,6,0,0,1,2.38-.39h5.4a9.36,9.36,0,0,1,1.83.15,3.13,3.13,0,0,1,1.26.52,2.26,2.26,0,0,1,.77,1.05,4.88,4.88,0,0,1,.26,1.71Z"/><rect class="cls-1" x="73.41" y="118.71" width="24.52" height="4.72"/><rect class="cls-1" x="73.41" y="136.33" width="24.52" height="4.72"/><rect class="cls-1" x="73.41" y="127.48" width="24.52" height="4.8"/><rect class="cls-2" x="93.13" y="119.84" width="2.4" height="2.47"/><rect class="cls-2" x="93.13" y="128.68" width="2.4" height="2.4"/><rect class="cls-2" x="93.13" y="137.53" width="2.4" height="2.4"/><path class="cls-2" d="M77.87,105.2a6.15,6.15,0,0,1-2.89-.74L33.76,83.17a6,6,0,0,1-3.27-5.46v-49a6.08,6.08,0,0,1,3.26-5.47l41.14-22A6.07,6.07,0,0,1,77.77.5a6.53,6.53,0,0,1,2.93.72l42.68,22.11a6,6,0,0,1,3.34,5.47V77.62a6.11,6.11,0,0,1-3.42,5.55L80.62,104.55A6.29,6.29,0,0,1,77.87,105.2Z"/><path class="cls-1" d="M77.77,1a6,6,0,0,1,2.7.67l42.68,22.1a5.49,5.49,0,0,1,3.07,5V77.62a5.59,5.59,0,0,1-3.15,5.1L80.39,104.11a5.92,5.92,0,0,1-2.53.59,5.62,5.62,0,0,1-2.65-.68L34,82.72a5.54,5.54,0,0,1-3-5v-49a5.6,5.6,0,0,1,3-5l41.14-22A5.6,5.6,0,0,1,77.77,1m0-1a6.67,6.67,0,0,0-3.11.78l-41.14,22A6.56,6.56,0,0,0,30,28.71v49a6.53,6.53,0,0,0,3.54,5.9l41.22,21.3a6.59,6.59,0,0,0,3.11.79,6.85,6.85,0,0,0,3-.69l42.69-21.39a6.57,6.57,0,0,0,3.71-6V28.8a6.49,6.49,0,0,0-3.62-5.92L80.93.78A7,7,0,0,0,77.77,0Z"/><polygon class="cls-3" points="99.34 27.34 109.06 23.21 109.3 23.37 109.3 43.7 99.34 43.05 99.34 27.34"/><polygon class="cls-3" points="99.34 80.3 109.06 83.21 109.3 82.48 109.3 60.05 99.34 60.78 99.34 80.3"/><path class="cls-3" d="M70.59,92.44l2.11-3.15.89.81L71.4,93.25Zm2.51-2.75-.4-.4a.54.54,0,0,1,.81-.09c.24.16.24.57.08.9Zm-.48,0,.81-38.14h1.13l-.89,38.14ZM74,51.55h-.56a.57.57,0,1,1,1.13,0Zm-.56,0-1-39.6h1.13l1,39.6ZM73,12h-.56A.63.63,0,0,1,73,11.3a.58.58,0,0,1,.57.65Zm-.4-.48A6.85,6.85,0,0,1,77,9.28l.08,1.3a5.54,5.54,0,0,0-3.64,1.78ZM77,9.28a10,10,0,0,1,5.34,1l-.4,1.13a9.65,9.65,0,0,0-4.86-.8Zm5.34,1,4.78,2.27-.4,1.21-4.78-2.35Zm4.78,2.27,12.47,6-.48,1.22-12.39-6Zm12.23,6.56.24-.57a.62.62,0,0,1,.25.81.59.59,0,0,1-.73.41Zm.57,0V43.13H98.77V19.08Zm-.57,24.05h.57a.57.57,0,1,1-1.14,0Zm0-.65,9.88.65v1.29l-9.88-.65Zm9.88,1.29v-.64a.65.65,0,0,1,0,1.29Zm-.57,0v-20h1.14v20Zm.57-20h-.57a.57.57,0,1,1,1.14,0Zm.24-.56,10.85,5.26-.4,1.22L109,24.34Zm10.61,5.91.24-.65a.89.89,0,0,1,.33.89c-.17.33-.49.49-.73.33Zm.57,0V77.54H119.5V29.12Zm-.57,48.42h.57a.57.57,0,1,1-1.14,0Zm.4.49h0l-.8-1h0Zm-.4-.49.4.49a.53.53,0,0,1-.8,0,1,1,0,0,1,0-1Zm.24.57-10.93,4.94-.4-1.13L119.91,77Zm-11.09,4.37.16.57a.44.44,0,0,1-.65-.33.59.59,0,0,1,.25-.8Zm-.57,0V60h1.14V82.48ZM109.22,60h-.57a.57.57,0,1,1,1.14,0Zm0,.65-9.88.73v-1.3l9.88-.73Zm-9.88.08v.65a.66.66,0,0,1,0-1.3Zm.57,0V86.94H98.77V60.7Zm-.57,26.24h.57a.57.57,0,1,1-1.14,0Zm.24.57-17.25,8-.4-1.13,17.17-8ZM82.17,95l.16.57c-.24.16-.56,0-.72-.33a.71.71,0,0,1,.32-.8Zm.16.57a10.1,10.1,0,0,1-6.23.65l.16-1.3a9.37,9.37,0,0,0,5.67-.48Zm-6.23.65a9.84,9.84,0,0,1-5.51-2.83l.81-1a8.49,8.49,0,0,0,4.86,2.51ZM71,92.85l-.41.49a.76.76,0,0,1,0-1,.55.55,0,0,1,.81,0Z"/><path class="cls-3" d="M37.88,76.65,67.27,92.36c8.83,4.7,18,6.32,18-6.72V65.32a14.91,14.91,0,0,0-2.35-8.26,11.61,11.61,0,0,0-4.53-4.21,12.36,12.36,0,0,0,4.53-4.22,14.24,14.24,0,0,0,2.27-8.25V20.86c0-13-8.18-12.71-15.87-8.74L37.88,28.47Z"/><path class="cls-3" d="M38.12,76.08l29.4,15.63-.41,1.22L37.64,77.22Zm29.4,15.63c3.72,2,7.45,3.41,10.52,3.41v1.29c-3.24,0-7.12-1.46-10.93-3.48ZM78,95.12a5.93,5.93,0,0,0,3.16-.73l.49,1.21a7.77,7.77,0,0,1-3.65.81Zm3.16-.73a5.63,5.63,0,0,0,2.27-2.27l1,.65a7.21,7.21,0,0,1-2.75,2.83Zm2.27-2.27a14,14,0,0,0,1.21-6.48h1.14a15.23,15.23,0,0,1-1.38,7.13Zm1.21-6.48V65.32h1.14V85.64Zm0-20.32a14.54,14.54,0,0,0-.56-4.22l1-.4a17.42,17.42,0,0,1,.65,4.62Zm-.56-4.22a16.26,16.26,0,0,0-1.7-3.72l.89-.73a14.37,14.37,0,0,1,1.86,4.05Zm-1.7-3.72a11.29,11.29,0,0,0-2-2.35l.65-1a13.88,13.88,0,0,1,2.19,2.59Zm-2-2.35a11.61,11.61,0,0,0-2.35-1.62l.41-1.21a8.38,8.38,0,0,1,2.59,1.86Zm-2.1-2.18-.25.56a.9.9,0,0,1-.32-.89.6.6,0,0,1,.73-.32Zm-.25-.65a8.84,8.84,0,0,0,2.35-1.62l.65,1.05a9.69,9.69,0,0,1-2.59,1.78Zm2.68-1.06-.33-.56a.57.57,0,0,1,.81.16.76.76,0,0,1-.16.89Zm-.33-.56a9.54,9.54,0,0,0,2-2.35l.89.81a13.88,13.88,0,0,1-2.19,2.59Zm2-2.35a15.5,15.5,0,0,0,1.7-3.64l1,.4a15.47,15.47,0,0,1-1.86,4Zm1.7-3.64a17.9,17.9,0,0,0,.56-4.21h1.06A17.39,17.39,0,0,1,85.17,45Zm.56-4.21L84.6,20.86h1.14V40.38ZM84.6,20.86a16.5,16.5,0,0,0-1.29-7.13l.89-.64a16.7,16.7,0,0,1,1.54,7.77Zm-1.29-7.13a6.37,6.37,0,0,0-2.43-2.59L81.36,10a7,7,0,0,1,2.84,3.08Zm-2.43-2.59a7.11,7.11,0,0,0-3.4-.81V9.12a8,8,0,0,1,3.88.89Zm-3.4-.81a18.39,18.39,0,0,0-7.94,2.35l-.49-1.13a19.39,19.39,0,0,1,8.43-2.43Zm-7.94,2.35L38.12,29.12l-.48-1.21L69.05,11.55ZM37.88,28.47l.24.65c-.32.08-.65,0-.73-.32a.73.73,0,0,1,.25-.89Zm.56,0V76.65H37.31V28.47Zm-.56,48.18h.56a.57.57,0,1,1-1.13,0Z"/><path class="cls-2" d="M70.92,32.36c0-1.13-.65-1.54-1.87-1.22L44.27,38v9.47l25-2.83a1.8,1.8,0,0,0,1.62-2V32.36Z"/><polygon class="cls-3" points="45.49 39.89 69.22 34.22 69.22 41.18 45.49 44.83 45.49 39.89"/><polygon class="cls-2" points="64.28 37.22 67.03 36.73 67.03 39.48 64.28 39.97 64.28 37.22"/><polygon class="cls-2" points="48.49 40.94 60.15 38.43 60.15 40.45 58.37 40.78 48.49 42.73 48.49 40.94"/><path class="cls-2" d="M70.92,73.41c0,1.22-.65,1.63-1.87,1.3L44.27,68.64V59.16l25,2.11c1,.08,1.62.73,1.62,1.94v10.2Z"/><polygon class="cls-3" points="45.49 66.69 69.22 71.55 69.22 64.67 45.49 61.75 45.49 66.69"/><polygon class="cls-2" points="64.28 68.72 67.03 69.21 67.03 66.37 64.28 66.04 64.28 68.72"/><polygon class="cls-2" points="48.49 65.56 60.15 67.67 60.15 65.64 58.37 65.32 48.49 63.78 48.49 65.56"/></g></g></svg>